<svg width="20" height="20" viewBox="0 0 20 20" fill="none" xmlns="http://www.w3.org/2000/svg">
<rect x="1.75" y="1.75" width="16.5" height="16.5" rx="3.25" stroke="#0F172A" stroke-width="1.5"/>
<path fill-rule="evenodd" clip-rule="evenodd" d="M6.04323 5V5.00955C5.58012 5.00955 5.20512 5.34395 5.20512 5.75478C5.20512 6.16561 5.58012 6.5 6.04323 6.5H9.25491C9.71802 6.5 10.0941 6.16561 10.0941 5.74427C10.0941 5.33439 9.71802 5 9.25491 5H6.04323ZM14.4678 10.9088H6.04373C5.58062 10.9088 5.20562 10.5725 5.20562 10.1593C5.20562 9.74607 5.58062 9.40878 6.04373 9.40878H14.4678C14.9299 9.40878 15.3059 9.74607 15.3059 10.1593C15.3059 10.5725 14.9299 10.9088 14.4678 10.9088ZM14.4677 15.3222H6.04358C5.72123 15.3601 5.40962 15.2178 5.2377 14.9805C5.06578 14.7337 5.06578 14.4205 5.2377 14.1832C5.40962 13.9365 5.72123 13.8036 6.04358 13.8321H14.4677C14.8964 13.87 15.2198 14.1927 15.2198 14.5819C15.2198 14.9606 14.8964 15.2842 14.4677 15.3222Z" fill="#0F172A"/>
</svg>
