<svg xmlns="http://www.w3.org/2000/svg" xmlns:xlink="http://www.w3.org/1999/xlink" zoomAndPan="magnify" preserveAspectRatio="xMidYMid meet" version="1.0" viewBox="79.01 163.24 215.51 45.76"><defs><g/><clipPath id="70d50f217e"><path d="M 79.011719 163.242188 L 121 163.242188 L 121 209 L 79.011719 209 Z M 79.011719 163.242188 " clip-rule="nonzero"/></clipPath></defs><g clip-path="url(#70d50f217e)"><path fill="#3bb77e" d="M 110.003906 172.605469 L 109.625 172.316406 L 109.230469 172.046875 C 109.164062 172 109.097656 171.953125 109.03125 171.914062 L 108.828125 171.789062 C 108.691406 171.707031 108.554688 171.621094 108.417969 171.539062 C 108.136719 171.390625 107.859375 171.226562 107.570312 171.09375 C 107.425781 171.027344 107.285156 170.953125 107.136719 170.890625 L 106.695312 170.707031 C 105.515625 170.214844 104.257812 169.90625 102.988281 169.757812 C 101.710938 169.605469 100.417969 169.65625 99.152344 169.859375 C 98.992188 169.878906 98.835938 169.914062 98.675781 169.945312 C 98.519531 169.980469 98.363281 170.007812 98.207031 170.046875 C 97.894531 170.128906 97.582031 170.199219 97.277344 170.300781 C 97.125 170.351562 96.96875 170.398438 96.816406 170.449219 C 96.710938 170.488281 96.597656 170.507812 96.484375 170.503906 C 89.328125 170.328125 83.335938 177.902344 85.804688 186.800781 C 85.84375 186.9375 86.03125 186.957031 86.09375 186.828125 C 87.128906 184.660156 89.746094 183.933594 92.449219 182.445312 C 95.3125 180.863281 98.277344 178.425781 99.550781 172.5 C 99.558594 172.476562 99.5625 172.453125 99.566406 172.429688 C 99.605469 172.179688 99.347656 171.984375 99.125 172.105469 C 98.886719 172.230469 98.65625 172.363281 98.421875 172.496094 C 97.839844 172.828125 97.261719 173.183594 96.695312 173.554688 C 96.414062 173.738281 96.132812 173.925781 95.851562 174.117188 C 95.574219 174.308594 95.296875 174.503906 95.023438 174.703125 C 94.472656 175.097656 93.933594 175.511719 93.402344 175.933594 C 92.871094 176.359375 92.355469 176.796875 91.851562 177.253906 C 91.351562 177.710938 90.863281 178.1875 90.40625 178.6875 C 90.175781 178.941406 89.953125 179.199219 89.742188 179.464844 C 89.625 179.613281 89.511719 179.765625 89.402344 179.921875 C 89.390625 179.941406 89.363281 179.921875 89.375 179.902344 C 89.472656 179.738281 89.574219 179.578125 89.679688 179.417969 C 89.871094 179.132812 90.074219 178.855469 90.285156 178.585938 C 90.707031 178.046875 91.160156 177.53125 91.632812 177.03125 C 92.101562 176.53125 92.589844 176.046875 93.09375 175.578125 C 93.59375 175.105469 94.105469 174.648438 94.632812 174.207031 C 94.894531 173.984375 95.160156 173.765625 95.429688 173.546875 C 95.695312 173.332031 95.964844 173.121094 96.242188 172.910156 C 96.613281 172.625 96.988281 172.347656 97.371094 172.074219 L 97.410156 172.058594 C 97.542969 172.007812 97.675781 171.964844 97.808594 171.917969 C 98.074219 171.816406 98.351562 171.75 98.621094 171.667969 C 98.757812 171.628906 98.898438 171.601562 99.035156 171.566406 C 99.171875 171.535156 99.308594 171.496094 99.449219 171.476562 C 100.5625 171.265625 101.707031 171.183594 102.847656 171.285156 C 103.980469 171.382812 105.109375 171.625 106.1875 172.03125 L 106.589844 172.1875 C 106.722656 172.238281 106.851562 172.300781 106.984375 172.359375 C 107.25 172.46875 107.5 172.609375 107.757812 172.738281 C 107.886719 172.804688 108.007812 172.878906 108.136719 172.949219 L 108.324219 173.058594 C 108.386719 173.09375 108.445312 173.132812 108.503906 173.171875 L 108.871094 173.40625 L 109.222656 173.65625 C 111.089844 175.007812 112.585938 176.894531 113.484375 179.042969 C 114.386719 181.191406 114.691406 183.59375 114.339844 185.90625 L 114.265625 186.339844 L 114.175781 186.769531 L 114.128906 186.984375 L 114.074219 187.195312 L 113.957031 187.621094 L 113.824219 188.039062 C 113.800781 188.109375 113.777344 188.179688 113.753906 188.25 L 113.675781 188.453125 L 113.519531 188.867188 L 113.339844 189.269531 L 113.25 189.46875 L 113.152344 189.667969 L 112.953125 190.0625 L 112.738281 190.445312 C 112.699219 190.507812 112.664062 190.574219 112.625 190.632812 L 112.507812 190.820312 C 112.203125 191.324219 111.84375 191.792969 111.46875 192.246094 C 110.671875 193.203125 109.726562 194.035156 108.675781 194.714844 C 108.90625 194.785156 109.132812 194.855469 109.359375 194.925781 C 110.320312 194.296875 111.199219 193.542969 111.96875 192.679688 C 112.375 192.214844 112.765625 191.730469 113.105469 191.210938 L 113.234375 191.019531 C 113.28125 190.953125 113.316406 190.886719 113.359375 190.820312 L 113.601562 190.421875 L 113.824219 190.015625 L 113.933594 189.808594 L 114.035156 189.597656 L 114.234375 189.179688 L 114.414062 188.746094 L 114.503906 188.53125 C 114.53125 188.460938 114.558594 188.386719 114.585938 188.3125 L 114.742188 187.871094 L 114.878906 187.425781 L 114.945312 187.199219 L 115 186.972656 L 115.113281 186.515625 L 115.203125 186.058594 C 115.652344 183.597656 115.410156 181 114.5 178.640625 C 113.59375 176.277344 112.027344 174.160156 110.003906 172.605469 Z M 120.902344 198.035156 C 113.984375 210.292969 99.359375 211.988281 91.828125 204.078125 C 91.710938 203.953125 91.570312 203.851562 91.414062 203.777344 C 91.191406 203.671875 90.976562 203.554688 90.757812 203.441406 C 90.679688 203.402344 90.605469 203.363281 90.527344 203.324219 C 90.171875 203.132812 89.828125 202.917969 89.480469 202.714844 C 89.269531 202.589844 89.070312 202.449219 88.863281 202.316406 C 88.660156 202.175781 88.453125 202.050781 88.257812 201.898438 C 88.171875 201.835938 88.089844 201.773438 88.003906 201.710938 C 86.519531 200.601562 85.160156 199.320312 84.015625 197.867188 C 82.800781 196.335938 81.78125 194.644531 81.035156 192.84375 L 80.757812 192.167969 C 80.671875 191.941406 80.59375 191.710938 80.511719 191.480469 C 80.34375 191.023438 80.21875 190.550781 80.078125 190.085938 C 80.015625 189.851562 79.960938 189.613281 79.902344 189.378906 L 79.820312 189.023438 C 79.789062 188.902344 79.773438 188.785156 79.75 188.664062 L 79.613281 187.945312 L 79.511719 187.222656 C 79.011719 183.363281 79.597656 179.390625 81.167969 175.867188 C 82.730469 172.34375 85.261719 169.277344 88.402344 167.113281 L 88.992188 166.714844 L 89.605469 166.34375 L 89.910156 166.160156 L 90.222656 165.992188 L 90.851562 165.65625 L 91.496094 165.347656 C 91.601562 165.300781 91.710938 165.246094 91.816406 165.199219 L 92.148438 165.0625 L 92.804688 164.792969 L 93.476562 164.554688 L 93.808594 164.4375 L 94.152344 164.335938 L 94.832031 164.136719 L 95.519531 163.96875 C 95.636719 163.941406 95.75 163.910156 95.867188 163.886719 L 96.214844 163.820312 C 97.140625 163.625 98.082031 163.527344 99.023438 163.464844 C 102.792969 163.246094 106.59375 164.128906 109.886719 165.914062 C 113.179688 167.699219 115.976562 170.390625 117.832031 173.632812 C 117.953125 173.828125 118.058594 174.039062 118.167969 174.242188 C 118.277344 174.449219 118.394531 174.652344 118.492188 174.863281 C 118.6875 175.289062 118.894531 175.703125 119.058594 176.140625 C 119.238281 176.570312 119.40625 177.003906 119.550781 177.445312 C 119.699219 177.886719 119.832031 178.332031 119.945312 178.785156 C 120.414062 180.585938 120.632812 182.445312 120.597656 184.296875 C 120.578125 182.445312 120.300781 180.601562 119.785156 178.828125 C 119.65625 178.386719 119.511719 177.949219 119.355469 177.515625 C 119.199219 177.082031 119.019531 176.660156 118.832031 176.238281 C 118.652344 175.8125 118.4375 175.40625 118.230469 174.996094 C 118.128906 174.792969 118.007812 174.597656 117.898438 174.394531 C 117.78125 174.199219 117.671875 173.996094 117.546875 173.804688 C 115.628906 170.671875 112.816406 168.136719 109.578125 166.507812 C 106.34375 164.878906 102.671875 164.152344 99.09375 164.46875 C 98.199219 164.554688 97.308594 164.675781 96.4375 164.886719 L 96.109375 164.957031 C 96 164.984375 95.894531 165.015625 95.785156 165.046875 L 95.136719 165.222656 L 94.5 165.433594 L 94.179688 165.539062 L 93.242188 165.902344 L 92.628906 166.175781 L 92.324219 166.3125 C 92.222656 166.363281 92.125 166.414062 92.023438 166.464844 L 91.425781 166.769531 L 90.847656 167.105469 L 90.554688 167.269531 L 90.273438 167.453125 L 89.714844 167.816406 L 89.171875 168.207031 C 86.296875 170.320312 84.039062 173.242188 82.695312 176.527344 C 81.351562 179.816406 80.929688 183.460938 81.488281 186.9375 L 81.601562 187.585938 L 81.742188 188.230469 C 81.765625 188.339844 81.785156 188.445312 81.816406 188.554688 L 81.902344 188.871094 C 81.960938 189.082031 82.011719 189.296875 82.078125 189.503906 C 82.21875 189.921875 82.339844 190.34375 82.507812 190.75 C 82.589844 190.953125 82.660156 191.160156 82.746094 191.363281 L 83.015625 191.964844 C 83.734375 193.5625 84.691406 195.042969 85.8125 196.371094 C 86.570312 197.28125 87.421875 198.101562 88.339844 198.839844 C 88.773438 199.1875 89.222656 199.519531 89.679688 199.832031 C 89.855469 199.960938 90.042969 200.066406 90.226562 200.183594 C 90.253906 200.199219 90.285156 200.21875 90.316406 200.238281 C 90.46875 200.335938 90.621094 200.433594 90.777344 200.519531 C 91.160156 200.722656 91.53125 200.945312 91.921875 201.125 C 92.117188 201.21875 92.3125 201.316406 92.507812 201.402344 L 92.566406 201.429688 C 93.273438 201.546875 93.976562 201.65625 94.683594 201.75 C 95.207031 201.820312 95.726562 201.882812 96.25 201.9375 C 96.769531 201.996094 97.292969 202.042969 97.816406 202.089844 C 98.859375 202.175781 99.90625 202.238281 100.953125 202.273438 C 102 202.308594 103.046875 202.3125 104.09375 202.28125 C 105.140625 202.25 106.1875 202.183594 107.222656 202.054688 C 107.742188 201.992188 108.257812 201.914062 108.773438 201.8125 C 109.058594 201.753906 109.339844 201.691406 109.621094 201.621094 C 109.65625 201.613281 109.644531 201.5625 109.613281 201.566406 C 109.328125 201.617188 109.039062 201.660156 108.753906 201.691406 C 108.238281 201.753906 107.722656 201.792969 107.203125 201.816406 C 106.167969 201.863281 105.132812 201.847656 104.097656 201.800781 C 103.0625 201.75 102.03125 201.664062 101.003906 201.550781 C 99.976562 201.4375 98.953125 201.296875 97.929688 201.132812 C 97.421875 201.050781 96.914062 200.960938 96.40625 200.867188 C 95.898438 200.769531 95.390625 200.671875 94.886719 200.5625 C 93.878906 200.347656 92.875 200.109375 91.886719 199.839844 C 91.492188 199.734375 91.097656 199.621094 90.710938 199.503906 C 90.644531 199.484375 90.585938 199.453125 90.539062 199.410156 C 90.328125 199.226562 90.324219 198.863281 90.582031 198.679688 C 90.597656 198.667969 90.609375 198.660156 90.625 198.648438 C 90.640625 198.640625 90.65625 198.628906 90.671875 198.617188 C 92.136719 197.671875 93.535156 196.925781 94.867188 196.34375 C 94.914062 196.324219 94.960938 196.300781 95.011719 196.28125 C 100.671875 193.859375 105.191406 194.445312 109.046875 195.5625 C 109.152344 195.59375 109.253906 195.621094 109.359375 195.65625 C 109.609375 195.730469 109.851562 195.804688 110.097656 195.882812 C 114.132812 197.171875 117.441406 198.820312 120.621094 197.695312 C 120.828125 197.621094 121.011719 197.847656 120.902344 198.035156 " fill-opacity="1" fill-rule="nonzero"/></g><path fill="#3bb77e" d="M 91.964844 195.316406 C 91.960938 195.316406 91.855469 195.292969 91.679688 195.105469 L 91.964844 195.316406 " fill-opacity="1" fill-rule="nonzero"/><g fill="#2b2f4e" fill-opacity="1"><g transform="translate(133.560055, 198.749987)"><g><path d="M 3.8125 0 C 3.5625 0 3.363281 -0.0703125 3.21875 -0.21875 C 3.082031 -0.375 3.015625 -0.566406 3.015625 -0.796875 L 3.015625 -23.421875 C 3.015625 -23.679688 3.082031 -23.882812 3.21875 -24.03125 C 3.363281 -24.1875 3.5625 -24.265625 3.8125 -24.265625 L 5.40625 -24.265625 C 5.6875 -24.265625 5.894531 -24.195312 6.03125 -24.0625 C 6.164062 -23.9375 6.242188 -23.84375 6.265625 -23.78125 L 17.78125 -6.09375 L 17.78125 -23.421875 C 17.78125 -23.679688 17.847656 -23.882812 17.984375 -24.03125 C 18.117188 -24.1875 18.316406 -24.265625 18.578125 -24.265625 L 20.234375 -24.265625 C 20.492188 -24.265625 20.695312 -24.1875 20.84375 -24.03125 C 21 -23.882812 21.078125 -23.679688 21.078125 -23.421875 L 21.078125 -0.828125 C 21.078125 -0.597656 21 -0.398438 20.84375 -0.234375 C 20.695312 -0.078125 20.507812 0 20.28125 0 L 18.609375 0 C 18.359375 0 18.164062 -0.0664062 18.03125 -0.203125 C 17.90625 -0.347656 17.820312 -0.441406 17.78125 -0.484375 L 6.3125 -17.984375 L 6.3125 -0.796875 C 6.3125 -0.566406 6.234375 -0.375 6.078125 -0.21875 C 5.929688 -0.0703125 5.726562 0 5.46875 0 Z M 3.8125 0 "/></g></g></g><g fill="#2b2f4e" fill-opacity="1"><g transform="translate(157.643436, 198.749987)"><g><path d="M 7.59375 0.34375 C 6.4375 0.34375 5.382812 0.113281 4.4375 -0.34375 C 3.488281 -0.8125 2.722656 -1.4375 2.140625 -2.21875 C 1.566406 -3 1.28125 -3.890625 1.28125 -4.890625 C 1.28125 -6.484375 1.925781 -7.753906 3.21875 -8.703125 C 4.507812 -9.648438 6.195312 -10.269531 8.28125 -10.5625 L 13.453125 -11.296875 L 13.453125 -12.296875 C 13.453125 -13.410156 13.132812 -14.28125 12.5 -14.90625 C 11.863281 -15.53125 10.828125 -15.84375 9.390625 -15.84375 C 8.367188 -15.84375 7.535156 -15.632812 6.890625 -15.21875 C 6.242188 -14.800781 5.796875 -14.269531 5.546875 -13.625 C 5.410156 -13.269531 5.164062 -13.09375 4.8125 -13.09375 L 3.25 -13.09375 C 3 -13.09375 2.8125 -13.164062 2.6875 -13.3125 C 2.5625 -13.46875 2.5 -13.648438 2.5 -13.859375 C 2.5 -14.203125 2.628906 -14.628906 2.890625 -15.140625 C 3.160156 -15.648438 3.570312 -16.144531 4.125 -16.625 C 4.675781 -17.113281 5.382812 -17.523438 6.25 -17.859375 C 7.125 -18.203125 8.179688 -18.375 9.421875 -18.375 C 10.804688 -18.375 11.972656 -18.191406 12.921875 -17.828125 C 13.867188 -17.472656 14.613281 -16.992188 15.15625 -16.390625 C 15.695312 -15.785156 16.085938 -15.101562 16.328125 -14.34375 C 16.578125 -13.582031 16.703125 -12.8125 16.703125 -12.03125 L 16.703125 -0.796875 C 16.703125 -0.566406 16.625 -0.375 16.46875 -0.21875 C 16.320312 -0.0703125 16.132812 0 15.90625 0 L 14.3125 0 C 14.0625 0 13.863281 -0.0703125 13.71875 -0.21875 C 13.582031 -0.375 13.515625 -0.566406 13.515625 -0.796875 L 13.515625 -2.28125 C 13.210938 -1.863281 12.804688 -1.453125 12.296875 -1.046875 C 11.796875 -0.648438 11.160156 -0.316406 10.390625 -0.046875 C 9.628906 0.210938 8.695312 0.34375 7.59375 0.34375 Z M 8.3125 -2.25 C 9.257812 -2.25 10.125 -2.453125 10.90625 -2.859375 C 11.695312 -3.265625 12.316406 -3.894531 12.765625 -4.75 C 13.222656 -5.601562 13.453125 -6.675781 13.453125 -7.96875 L 13.453125 -8.9375 L 9.421875 -8.359375 C 7.785156 -8.117188 6.550781 -7.726562 5.71875 -7.1875 C 4.882812 -6.644531 4.46875 -5.957031 4.46875 -5.125 C 4.46875 -4.476562 4.65625 -3.941406 5.03125 -3.515625 C 5.414062 -3.085938 5.898438 -2.769531 6.484375 -2.5625 C 7.078125 -2.351562 7.6875 -2.25 8.3125 -2.25 Z M 8.3125 -2.25 "/></g></g></g><g fill="#2b2f4e" fill-opacity="1"><g transform="translate(176.771536, 198.749987)"><g><path d="M 9.59375 0 C 8.300781 0 7.25 -0.242188 6.4375 -0.734375 C 5.632812 -1.234375 5.046875 -1.941406 4.671875 -2.859375 C 4.304688 -3.773438 4.125 -4.851562 4.125 -6.09375 L 4.125 -15.25 L 1.421875 -15.25 C 1.191406 -15.25 1 -15.320312 0.84375 -15.46875 C 0.695312 -15.625 0.625 -15.816406 0.625 -16.046875 L 0.625 -17.21875 C 0.625 -17.457031 0.695312 -17.648438 0.84375 -17.796875 C 1 -17.941406 1.191406 -18.015625 1.421875 -18.015625 L 4.125 -18.015625 L 4.125 -23.8125 C 4.125 -24.039062 4.195312 -24.226562 4.34375 -24.375 C 4.5 -24.53125 4.691406 -24.609375 4.921875 -24.609375 L 6.546875 -24.609375 C 6.773438 -24.609375 6.960938 -24.53125 7.109375 -24.375 C 7.265625 -24.226562 7.34375 -24.039062 7.34375 -23.8125 L 7.34375 -18.015625 L 11.640625 -18.015625 C 11.898438 -18.015625 12.097656 -17.941406 12.234375 -17.796875 C 12.367188 -17.648438 12.4375 -17.457031 12.4375 -17.21875 L 12.4375 -16.046875 C 12.4375 -15.816406 12.367188 -15.625 12.234375 -15.46875 C 12.097656 -15.320312 11.898438 -15.25 11.640625 -15.25 L 7.34375 -15.25 L 7.34375 -6.34375 C 7.34375 -5.257812 7.523438 -4.40625 7.890625 -3.78125 C 8.265625 -3.15625 8.925781 -2.84375 9.875 -2.84375 L 11.984375 -2.84375 C 12.222656 -2.84375 12.414062 -2.765625 12.5625 -2.609375 C 12.707031 -2.460938 12.78125 -2.273438 12.78125 -2.046875 L 12.78125 -0.796875 C 12.78125 -0.566406 12.707031 -0.375 12.5625 -0.21875 C 12.414062 -0.0703125 12.222656 0 11.984375 0 Z M 9.59375 0 "/></g></g></g><g fill="#2b2f4e" fill-opacity="1"><g transform="translate(190.320607, 198.749987)"><g><path d="M 9.28125 0.34375 C 7.800781 0.34375 6.546875 0.015625 5.515625 -0.640625 C 4.492188 -1.296875 3.71875 -2.210938 3.1875 -3.390625 C 2.65625 -4.566406 2.390625 -5.921875 2.390625 -7.453125 L 2.390625 -17.21875 C 2.390625 -17.457031 2.460938 -17.648438 2.609375 -17.796875 C 2.765625 -17.941406 2.957031 -18.015625 3.1875 -18.015625 L 4.921875 -18.015625 C 5.148438 -18.015625 5.335938 -17.941406 5.484375 -17.796875 C 5.640625 -17.648438 5.71875 -17.457031 5.71875 -17.21875 L 5.71875 -7.625 C 5.71875 -4.175781 7.21875 -2.453125 10.21875 -2.453125 C 11.65625 -2.453125 12.804688 -2.910156 13.671875 -3.828125 C 14.535156 -4.742188 14.96875 -6.007812 14.96875 -7.625 L 14.96875 -17.21875 C 14.96875 -17.457031 15.039062 -17.648438 15.1875 -17.796875 C 15.34375 -17.941406 15.535156 -18.015625 15.765625 -18.015625 L 17.5 -18.015625 C 17.726562 -18.015625 17.910156 -17.941406 18.046875 -17.796875 C 18.191406 -17.648438 18.265625 -17.457031 18.265625 -17.21875 L 18.265625 -0.796875 C 18.265625 -0.566406 18.191406 -0.375 18.046875 -0.21875 C 17.910156 -0.0703125 17.726562 0 17.5 0 L 15.875 0 C 15.644531 0 15.453125 -0.0703125 15.296875 -0.21875 C 15.148438 -0.375 15.078125 -0.566406 15.078125 -0.796875 L 15.078125 -2.328125 C 14.453125 -1.515625 13.691406 -0.863281 12.796875 -0.375 C 11.910156 0.101562 10.738281 0.34375 9.28125 0.34375 Z M 9.28125 0.34375 "/></g></g></g><g fill="#2b2f4e" fill-opacity="1"><g transform="translate(211.18132, 198.749987)"><g><path d="M 3.359375 0 C 3.128906 0 2.9375 -0.0703125 2.78125 -0.21875 C 2.632812 -0.375 2.5625 -0.566406 2.5625 -0.796875 L 2.5625 -17.1875 C 2.5625 -17.414062 2.632812 -17.609375 2.78125 -17.765625 C 2.9375 -17.929688 3.128906 -18.015625 3.359375 -18.015625 L 4.953125 -18.015625 C 5.179688 -18.015625 5.375 -17.929688 5.53125 -17.765625 C 5.695312 -17.609375 5.78125 -17.414062 5.78125 -17.1875 L 5.78125 -15.671875 C 6.25 -16.453125 6.882812 -17.035156 7.6875 -17.421875 C 8.5 -17.816406 9.484375 -18.015625 10.640625 -18.015625 L 11.984375 -18.015625 C 12.222656 -18.015625 12.414062 -17.941406 12.5625 -17.796875 C 12.707031 -17.648438 12.78125 -17.457031 12.78125 -17.21875 L 12.78125 -15.796875 C 12.78125 -15.566406 12.707031 -15.382812 12.5625 -15.25 C 12.414062 -15.113281 12.222656 -15.046875 11.984375 -15.046875 L 9.90625 -15.046875 C 8.664062 -15.046875 7.6875 -14.679688 6.96875 -13.953125 C 6.25 -13.222656 5.890625 -12.234375 5.890625 -10.984375 L 5.890625 -0.796875 C 5.890625 -0.566406 5.804688 -0.375 5.640625 -0.21875 C 5.484375 -0.0703125 5.289062 0 5.0625 0 Z M 3.359375 0 "/></g></g></g><g fill="#2b2f4e" fill-opacity="1"><g transform="translate(224.349211, 198.749987)"><g><path d="M 9.765625 0.34375 C 7.367188 0.34375 5.460938 -0.390625 4.046875 -1.859375 C 2.640625 -3.328125 1.867188 -5.328125 1.734375 -7.859375 C 1.710938 -8.160156 1.703125 -8.546875 1.703125 -9.015625 C 1.703125 -9.492188 1.710938 -9.882812 1.734375 -10.1875 C 1.828125 -11.832031 2.207031 -13.269531 2.875 -14.5 C 3.539062 -15.738281 4.457031 -16.691406 5.625 -17.359375 C 6.789062 -18.035156 8.160156 -18.375 9.734375 -18.375 C 11.492188 -18.375 12.96875 -18.003906 14.15625 -17.265625 C 15.34375 -16.523438 16.25 -15.472656 16.875 -14.109375 C 17.5 -12.742188 17.8125 -11.148438 17.8125 -9.328125 L 17.8125 -8.734375 C 17.8125 -8.484375 17.734375 -8.285156 17.578125 -8.140625 C 17.429688 -8.003906 17.242188 -7.9375 17.015625 -7.9375 L 5.03125 -7.9375 C 5.03125 -7.914062 5.03125 -7.867188 5.03125 -7.796875 C 5.03125 -7.722656 5.03125 -7.664062 5.03125 -7.625 C 5.070312 -6.675781 5.273438 -5.789062 5.640625 -4.96875 C 6.015625 -4.15625 6.550781 -3.492188 7.25 -2.984375 C 7.957031 -2.472656 8.785156 -2.21875 9.734375 -2.21875 C 10.566406 -2.21875 11.257812 -2.34375 11.8125 -2.59375 C 12.375 -2.851562 12.828125 -3.140625 13.171875 -3.453125 C 13.515625 -3.765625 13.742188 -4.007812 13.859375 -4.1875 C 14.066406 -4.46875 14.226562 -4.632812 14.34375 -4.6875 C 14.457031 -4.75 14.644531 -4.78125 14.90625 -4.78125 L 16.59375 -4.78125 C 16.800781 -4.78125 16.976562 -4.71875 17.125 -4.59375 C 17.28125 -4.46875 17.347656 -4.289062 17.328125 -4.0625 C 17.304688 -3.707031 17.117188 -3.28125 16.765625 -2.78125 C 16.421875 -2.289062 15.929688 -1.800781 15.296875 -1.3125 C 14.660156 -0.832031 13.875 -0.4375 12.9375 -0.125 C 12.007812 0.1875 10.953125 0.34375 9.765625 0.34375 Z M 5.03125 -10.328125 L 14.515625 -10.328125 L 14.515625 -10.4375 C 14.515625 -11.46875 14.320312 -12.390625 13.9375 -13.203125 C 13.5625 -14.015625 13.015625 -14.65625 12.296875 -15.125 C 11.585938 -15.601562 10.734375 -15.84375 9.734375 -15.84375 C 8.742188 -15.84375 7.894531 -15.601562 7.1875 -15.125 C 6.488281 -14.65625 5.953125 -14.015625 5.578125 -13.203125 C 5.210938 -12.390625 5.03125 -11.46875 5.03125 -10.4375 Z M 5.03125 -10.328125 "/></g></g></g><g fill="#2b2f4e" fill-opacity="1"><g transform="translate(243.754533, 198.749987)"><g><path d="M 3.359375 0 C 3.128906 0 2.9375 -0.0703125 2.78125 -0.21875 C 2.632812 -0.375 2.5625 -0.566406 2.5625 -0.796875 L 2.5625 -17.21875 C 2.5625 -17.457031 2.632812 -17.648438 2.78125 -17.796875 C 2.9375 -17.941406 3.128906 -18.015625 3.359375 -18.015625 L 4.984375 -18.015625 C 5.222656 -18.015625 5.414062 -17.941406 5.5625 -17.796875 C 5.707031 -17.648438 5.78125 -17.457031 5.78125 -17.21875 L 5.78125 -15.703125 C 6.382812 -16.484375 7.140625 -17.125 8.046875 -17.625 C 8.960938 -18.125 10.140625 -18.375 11.578125 -18.375 C 13.078125 -18.375 14.351562 -18.039062 15.40625 -17.375 C 16.457031 -16.71875 17.253906 -15.804688 17.796875 -14.640625 C 18.335938 -13.472656 18.609375 -12.113281 18.609375 -10.5625 L 18.609375 -0.796875 C 18.609375 -0.566406 18.53125 -0.375 18.375 -0.21875 C 18.226562 -0.0703125 18.039062 0 17.8125 0 L 16.078125 0 C 15.847656 0 15.65625 -0.0703125 15.5 -0.21875 C 15.351562 -0.375 15.28125 -0.566406 15.28125 -0.796875 L 15.28125 -10.390625 C 15.28125 -12.015625 14.882812 -13.28125 14.09375 -14.1875 C 13.3125 -15.101562 12.160156 -15.5625 10.640625 -15.5625 C 9.203125 -15.5625 8.050781 -15.101562 7.1875 -14.1875 C 6.320312 -13.28125 5.890625 -12.015625 5.890625 -10.390625 L 5.890625 -0.796875 C 5.890625 -0.566406 5.8125 -0.375 5.65625 -0.21875 C 5.507812 -0.0703125 5.320312 0 5.09375 0 Z M 3.359375 0 "/></g></g></g><g fill="#2b2f4e" fill-opacity="1"><g transform="translate(264.753857, 198.749987)"><g><path d="M 9.59375 0 C 8.300781 0 7.25 -0.242188 6.4375 -0.734375 C 5.632812 -1.234375 5.046875 -1.941406 4.671875 -2.859375 C 4.304688 -3.773438 4.125 -4.851562 4.125 -6.09375 L 4.125 -15.25 L 1.421875 -15.25 C 1.191406 -15.25 1 -15.320312 0.84375 -15.46875 C 0.695312 -15.625 0.625 -15.816406 0.625 -16.046875 L 0.625 -17.21875 C 0.625 -17.457031 0.695312 -17.648438 0.84375 -17.796875 C 1 -17.941406 1.191406 -18.015625 1.421875 -18.015625 L 4.125 -18.015625 L 4.125 -23.8125 C 4.125 -24.039062 4.195312 -24.226562 4.34375 -24.375 C 4.5 -24.53125 4.691406 -24.609375 4.921875 -24.609375 L 6.546875 -24.609375 C 6.773438 -24.609375 6.960938 -24.53125 7.109375 -24.375 C 7.265625 -24.226562 7.34375 -24.039062 7.34375 -23.8125 L 7.34375 -18.015625 L 11.640625 -18.015625 C 11.898438 -18.015625 12.097656 -17.941406 12.234375 -17.796875 C 12.367188 -17.648438 12.4375 -17.457031 12.4375 -17.21875 L 12.4375 -16.046875 C 12.4375 -15.816406 12.367188 -15.625 12.234375 -15.46875 C 12.097656 -15.320312 11.898438 -15.25 11.640625 -15.25 L 7.34375 -15.25 L 7.34375 -6.34375 C 7.34375 -5.257812 7.523438 -4.40625 7.890625 -3.78125 C 8.265625 -3.15625 8.925781 -2.84375 9.875 -2.84375 L 11.984375 -2.84375 C 12.222656 -2.84375 12.414062 -2.765625 12.5625 -2.609375 C 12.707031 -2.460938 12.78125 -2.273438 12.78125 -2.046875 L 12.78125 -0.796875 C 12.78125 -0.566406 12.707031 -0.375 12.5625 -0.21875 C 12.414062 -0.0703125 12.222656 0 11.984375 0 Z M 9.59375 0 "/></g></g></g><g fill="#2b2f4e" fill-opacity="1"><g transform="translate(278.302928, 198.749987)"><g><path d="M 8.796875 0.34375 C 7.503906 0.34375 6.394531 0.179688 5.46875 -0.140625 C 4.550781 -0.460938 3.800781 -0.851562 3.21875 -1.3125 C 2.644531 -1.78125 2.210938 -2.242188 1.921875 -2.703125 C 1.628906 -3.160156 1.472656 -3.53125 1.453125 -3.8125 C 1.429688 -4.0625 1.507812 -4.253906 1.6875 -4.390625 C 1.875 -4.535156 2.0625 -4.609375 2.25 -4.609375 L 3.8125 -4.609375 C 3.925781 -4.609375 4.023438 -4.585938 4.109375 -4.546875 C 4.191406 -4.515625 4.300781 -4.421875 4.4375 -4.265625 C 4.738281 -3.941406 5.070312 -3.617188 5.4375 -3.296875 C 5.8125 -2.972656 6.269531 -2.707031 6.8125 -2.5 C 7.351562 -2.289062 8.03125 -2.1875 8.84375 -2.1875 C 10.019531 -2.1875 10.988281 -2.410156 11.75 -2.859375 C 12.507812 -3.304688 12.890625 -3.972656 12.890625 -4.859375 C 12.890625 -5.429688 12.734375 -5.890625 12.421875 -6.234375 C 12.109375 -6.585938 11.550781 -6.898438 10.75 -7.171875 C 9.957031 -7.453125 8.867188 -7.742188 7.484375 -8.046875 C 6.097656 -8.367188 5 -8.765625 4.1875 -9.234375 C 3.382812 -9.710938 2.804688 -10.28125 2.453125 -10.9375 C 2.109375 -11.59375 1.9375 -12.335938 1.9375 -13.171875 C 1.9375 -14.023438 2.191406 -14.847656 2.703125 -15.640625 C 3.210938 -16.441406 3.957031 -17.097656 4.9375 -17.609375 C 5.914062 -18.117188 7.144531 -18.375 8.625 -18.375 C 9.832031 -18.375 10.863281 -18.222656 11.71875 -17.921875 C 12.570312 -17.617188 13.273438 -17.238281 13.828125 -16.78125 C 14.378906 -16.332031 14.789062 -15.890625 15.0625 -15.453125 C 15.34375 -15.015625 15.5 -14.644531 15.53125 -14.34375 C 15.550781 -14.113281 15.476562 -13.921875 15.3125 -13.765625 C 15.15625 -13.617188 14.972656 -13.546875 14.765625 -13.546875 L 13.3125 -13.546875 C 13.144531 -13.546875 13.007812 -13.582031 12.90625 -13.65625 C 12.800781 -13.726562 12.703125 -13.804688 12.609375 -13.890625 C 12.378906 -14.191406 12.109375 -14.492188 11.796875 -14.796875 C 11.484375 -15.097656 11.078125 -15.347656 10.578125 -15.546875 C 10.085938 -15.742188 9.4375 -15.84375 8.625 -15.84375 C 7.46875 -15.84375 6.597656 -15.597656 6.015625 -15.109375 C 5.441406 -14.617188 5.15625 -14.003906 5.15625 -13.265625 C 5.15625 -12.828125 5.28125 -12.4375 5.53125 -12.09375 C 5.789062 -11.75 6.28125 -11.4375 7 -11.15625 C 7.71875 -10.882812 8.78125 -10.585938 10.1875 -10.265625 C 11.707031 -9.960938 12.90625 -9.554688 13.78125 -9.046875 C 14.664062 -8.535156 15.289062 -7.941406 15.65625 -7.265625 C 16.03125 -6.597656 16.21875 -5.828125 16.21875 -4.953125 C 16.21875 -3.984375 15.941406 -3.09375 15.390625 -2.28125 C 14.835938 -1.476562 14.003906 -0.835938 12.890625 -0.359375 C 11.785156 0.109375 10.421875 0.34375 8.796875 0.34375 Z M 8.796875 0.34375 "/></g></g></g></svg>