<svg xmlns="http://www.w3.org/2000/svg" width="22" height="22" viewBox="0 0 22 22">
    <defs>
        <style>
            .cls-1{fill:#aaa}.cls-2{fill:#fff}
        </style>
    </defs>
    <g id="Group_11605" data-name="Group 11605" transform="translate(-20 -20)">
        <path id="_62407d71a5fb7a7730e972ef3d1c5393" d="M3.793 0h14.414A3.793 3.793 0 0 1 22 3.793v14.414A3.793 3.793 0 0 1 18.207 22H3.793A3.793 3.793 0 0 1 0 18.207V3.793A3.793 3.793 0 0 1 3.793 0z" class="cls-1" data-name="62407d71a5fb7a7730e972ef3d1c5393" transform="translate(20 20)"/>
        <g id="user" transform="translate(24.4 24.4)">
            <g id="Group_11571" data-name="Group 11571">
                <path id="Path_11408" d="M11.267 8.533A6.575 6.575 0 0 0 8.759 6.96a3.816 3.816 0 1 0-4.318 0A6.61 6.61 0 0 0 0 13.2h1.031a5.569 5.569 0 1 1 11.138 0H13.2a6.557 6.557 0 0 0-1.933-4.667zM6.6 6.6a2.784 2.784 0 1 1 2.784-2.784A2.788 2.788 0 0 1 6.6 6.6z" class="cls-2" data-name="Path 11408"/>
            </g>
        </g>
    </g>
</svg>
