<svg xmlns="http://www.w3.org/2000/svg" width="18" height="14.643" viewBox="0 0 18 14.643">
    <defs>
        <style>
            .cls-1{fill:#606060}
        </style>
    </defs>
    <path id="Union_118" d="M-7801.261-4590.711a9.622 9.622 0 0 1-3.738.75 9.676 9.676 0 0 1-9-6.136 9.722 9.722 0 0 1 3.173-4.18l-1.638-1.638.542-.542.543-.543 1.879 1.878a9.614 9.614 0 0 1 4.5-1.112 9.675 9.675 0 0 1 9 6.136 9.728 9.728 0 0 1-3.837 4.641l2.015 2.015-.542.543-.543.541zm-7.829-5.386a4.091 4.091 0 0 0 4.091 4.091 4.073 4.073 0 0 0 1.95-.494l-1.244-1.244a2.456 2.456 0 0 1-.706.1 2.451 2.451 0 0 1-2.455-2.455 2.469 2.469 0 0 1 .1-.705l-1.244-1.244a4.071 4.071 0 0 0-.492 1.948zm7.232 2.62a4.074 4.074 0 0 0 .949-2.62 4.093 4.093 0 0 0-4.091-4.091 4.073 4.073 0 0 0-2.62.95l1.164 1.163a2.445 2.445 0 0 1 1.456-.477 2.453 2.453 0 0 1 2.454 2.455 2.447 2.447 0 0 1-.476 1.456z" class="cls-1" data-name="Union 118" transform="translate(7814 4603)"/>
</svg>
