<svg xmlns="http://www.w3.org/2000/svg" width="18" height="12.273" viewBox="0 0 18 12.273">
    <defs>
        <style>
            .cls-1{fill:#999}
        </style>
    </defs>
    <g id="Group_8182" data-name="Group 8182" transform="translate(-454 -974.767)">
        <path id="ic_visibility_24px" d="M10 4.5a9.676 9.676 0 0 0-9 6.136 9.668 9.668 0 0 0 18 0A9.676 9.676 0 0 0 10 4.5zm0 10.227a4.091 4.091 0 1 1 4.091-4.091A4.092 4.092 0 0 1 10 14.727zm0-6.545a2.455 2.455 0 1 0 2.455 2.455A2.451 2.451 0 0 0 10 8.182z" class="cls-1" transform="translate(453 970.267)"/>
    </g>
</svg>
