<?xml version="1.0" encoding="UTF-8"?>
<svg width="157px" height="50px" viewBox="0 0 157 50" version="1.1" xmlns="http://www.w3.org/2000/svg" xmlns:xlink="http://www.w3.org/1999/xlink">
    <!-- Generator: Sketch 47 (45396) - http://www.bohemiancoding.com/sketch -->
    <title>Page 1</title>
    <desc>Created with Sketch.</desc>
    <defs></defs>
    <g id="Page-1" stroke="none" stroke-width="1" fill="none" fill-rule="evenodd">
        <g id="Home-page" transform="translate(-147.000000, -65.000000)" fill="#FFFFFF">
            <path d="M281.887649,106.099032 L282.931972,106.099032 L282.931972,97.7206652 L281.887649,97.7206652 L281.887649,106.099032 Z M279.238533,98.650664 L276.570525,98.650664 L276.570525,106.099032 L275.525153,106.099032 L275.525153,98.650664 L272.86974,98.650664 L272.86974,97.7206652 L279.238533,97.7206652 L279.238533,98.650664 Z M256.873236,98.650664 L256.873236,101.853295 L259.076284,101.853295 C260.071277,101.853295 260.750349,101.188262 260.750349,100.245696 C260.750349,99.3031293 260.071277,98.650664 259.076284,98.650664 L256.873236,98.650664 Z M261.832456,100.245696 C261.832456,101.752754 260.800729,102.582213 259.655647,102.682753 L261.92062,106.099032 L260.687375,106.099032 L258.547301,102.770726 L256.873236,102.770726 L256.873236,106.099032 L255.828913,106.099032 L255.828913,97.7206652 L259.201183,97.7206652 C260.737754,97.7206652 261.832456,98.7009342 261.832456,100.245696 L261.832456,100.245696 Z M237.326035,98.650664 L237.326035,101.840727 L239.529084,101.840727 C240.524077,101.840727 241.203149,101.188262 241.203149,100.245696 C241.203149,99.3031293 240.524077,98.650664 239.529084,98.650664 L237.326035,98.650664 Z M242.285256,100.245696 C242.285256,101.614511 241.316502,102.770726 239.653983,102.770726 L237.326035,102.770726 L237.326035,106.099032 L236.281713,106.099032 L236.281713,97.7206652 L239.653983,97.7206652 C241.341692,97.7206652 242.285256,98.8768799 242.285256,100.245696 L242.285256,100.245696 Z M210.636508,97.5834695 C212.159434,97.5834695 213.192212,98.2987726 213.858689,99.2413389 L212.97705,99.730426 C212.499495,99.0276905 211.630451,98.5124209 210.636508,98.5124209 C208.836494,98.5124209 207.439516,99.9189393 207.439516,101.916133 C207.439516,103.900758 208.836494,105.319844 210.636508,105.319844 C211.630451,105.319844 212.499495,104.818189 212.97705,104.101839 L213.871284,104.591974 C213.167022,105.54606 212.159434,106.249843 210.636508,106.249843 C208.257131,106.249843 206.356359,104.490386 206.356359,101.916133 C206.356359,99.340832 208.257131,97.5834695 210.636508,97.5834695 L210.636508,97.5834695 Z M206.614554,87.9336852 L213.17332,79.1772444 L206.614554,79.1772444 L206.614554,75.7211679 L218.415924,75.7211679 L218.415924,78.8777177 L211.834068,87.6352059 L218.577558,87.6352059 L218.577558,91.0912823 L206.614554,91.0912823 L206.614554,87.9336852 Z M220.296754,98.5124209 C218.408577,98.5124209 217.213116,99.956642 217.213116,101.916133 C217.213116,103.863056 218.408577,105.319844 220.296754,105.319844 C222.172337,105.319844 223.381442,103.863056 223.381442,101.916133 C223.381442,99.956642 222.172337,98.5124209 220.296754,98.5124209 L220.296754,98.5124209 Z M220.296754,106.249843 C217.804024,106.249843 216.12996,104.390893 216.12996,101.916133 C216.12996,99.4413724 217.804024,97.5834695 220.296754,97.5834695 C222.77584,97.5834695 224.463549,99.4413724 224.463549,101.916133 C224.463549,104.390893 222.77584,106.249843 220.296754,106.249843 L220.296754,106.249843 Z M224.326055,91.0912823 L228.29763,91.0912823 L228.29763,75.7211679 L224.326055,75.7211679 L224.326055,91.0912823 Z M232.285998,100.245696 C232.285998,99.3031293 231.605876,98.650664 230.611933,98.650664 L228.409934,98.650664 L228.409934,101.853295 L230.611933,101.853295 C231.605876,101.853295 232.285998,101.188262 232.285998,100.245696 L232.285998,100.245696 Z M232.223024,106.099032 L230.082949,102.770726 L228.409934,102.770726 L228.409934,106.099032 L227.363512,106.099032 L227.363512,97.7206652 L230.737881,97.7206652 C232.273403,97.7206652 233.369155,98.7009342 233.369155,100.245696 C233.369155,101.752754 232.337427,102.582213 231.191296,102.682753 L233.457319,106.099032 L232.223024,106.099032 Z M242.082689,91.3677684 C237.487669,91.3677684 233.747,88.3023334 233.747,83.4177454 C233.747,78.5321101 237.487669,75.4677223 242.082689,75.4677223 C245.454959,75.4677223 247.533108,77.126639 248.664545,79.0390013 L245.338456,80.79008 C244.716061,79.7762976 243.538443,78.9698798 242.082689,78.9698798 C239.565819,78.9698798 237.787846,80.9052826 237.787846,83.4177454 C237.787846,85.9291609 239.565819,87.8645637 242.082689,87.8645637 C243.283397,87.8645637 244.369703,87.4498345 244.992098,86.9429433 L244.992098,85.6526748 L241.459244,85.6526748 L241.459244,82.3578819 L248.895451,82.3578819 L248.895451,88.3725022 C247.232931,90.1927024 244.992098,91.3677684 242.082689,91.3677684 L242.082689,91.3677684 Z M248.760056,98.5124209 C246.871879,98.5124209 245.676418,99.956642 245.676418,101.916133 C245.676418,103.863056 246.871879,105.319844 248.760056,105.319844 C250.635639,105.319844 251.844744,103.863056 251.844744,101.916133 C251.844744,99.956642 250.635639,98.5124209 248.760056,98.5124209 L248.760056,98.5124209 Z M248.760056,106.249843 C246.268376,106.249843 244.593261,104.390893 244.593261,101.916133 C244.593261,99.4413724 246.268376,97.5834695 248.760056,97.5834695 C251.240191,97.5834695 252.926851,99.4413724 252.926851,101.916133 C252.926851,104.390893 251.240191,106.249843 248.760056,106.249843 L248.760056,106.249843 Z M258.453889,91.0912823 L252.657111,75.7211679 L257.159769,75.7211679 L260.948718,86.8047003 L264.757609,75.7211679 L269.261316,75.7211679 L263.441448,91.0912823 L258.453889,91.0912823 Z M267.904222,98.650664 L266.080068,103.310083 L269.717879,103.310083 L267.904222,98.650664 Z M270.032751,104.240082 L265.777792,104.240082 L265.034696,106.099032 L263.87702,106.099032 L267.250339,97.7206652 L268.547608,97.7206652 L271.932473,106.099032 L270.775847,106.099032 L270.032751,104.240082 Z M282.029341,91.0912823 L278.056717,91.0912823 L278.056717,84.892338 L272.214808,75.7211679 L276.694374,75.7211679 L280.043554,81.3901806 L283.345503,75.7211679 L287.849209,75.7211679 L282.029341,84.892338 L282.029341,91.0912823 Z M289.984036,98.5124209 C288.095859,98.5124209 286.899348,99.956642 286.899348,101.916133 C286.899348,103.863056 288.095859,105.319844 289.984036,105.319844 C291.859618,105.319844 293.067674,103.863056 293.067674,101.916133 C293.067674,99.956642 291.859618,98.5124209 289.984036,98.5124209 L289.984036,98.5124209 Z M289.984036,106.249843 C287.491306,106.249843 285.817241,104.390893 285.817241,101.916133 C285.817241,99.4413724 287.491306,97.5834695 289.984036,97.5834695 C292.463121,97.5834695 294.149781,99.4413724 294.149781,101.916133 C294.149781,104.390893 292.463121,106.249843 289.984036,106.249843 L289.984036,106.249843 Z M302.992412,106.099032 L298.096166,99.340832 L298.096166,106.099032 L297.050794,106.099032 L297.050794,97.7206652 L298.120306,97.7206652 L302.954628,104.340623 L302.954628,97.7206652 L304,97.7206652 L304,106.099032 L302.992412,106.099032 Z M195.144847,84.2576767 L174.651984,104.712413 L195.144847,104.712413 L195.144847,113.038415 L155.066999,113.038415 L195.144847,73.0359013 L195.144847,84.2576767 Z M149.007828,95.7685057 L169.500692,75.3148171 L149.007828,75.3148171 L149.007828,66.9877676 L189.086727,66.9877676 L149.007828,106.991328 L149.007828,95.7685057 Z M147.730501,114.96125 L147,115 L147.009446,114.241758 L196.331912,65.010473 L197.091801,65 L197.052967,65.7299652 L147.730501,114.96125 Z" id="Page-1"></path>
        </g>
    </g>
</svg>